<?xml version="1.0" encoding="UTF-8" standalone="no"?>
<svg
   xmlns:dc="http://purl.org/dc/elements/1.1/"
   xmlns:cc="http://creativecommons.org/ns#"
   xmlns:rdf="http://www.w3.org/1999/02/22-rdf-syntax-ns#"
   xmlns:svg="http://www.w3.org/2000/svg"
   xmlns="http://www.w3.org/2000/svg"
   xmlns:sodipodi="http://sodipodi.sourceforge.net/DTD/sodipodi-0.dtd"
   xmlns:inkscape="http://www.inkscape.org/namespaces/inkscape"
   height="45"
   viewBox="0 0 20 18"
   width="50"
   id="svg2"
   version="1.1"
   inkscape:version="0.91 r13725"
   sodipodi:docname="ic_camera_enhance_white_48px.svg"
   style="fill:#fff">
  <metadata
     id="metadata14">
    <rdf:RDF>
      <cc:Work
         rdf:about="">
        <dc:format>image/svg+xml</dc:format>
        <dc:type
           rdf:resource="http://purl.org/dc/dcmitype/StillImage" />
        <dc:title></dc:title>
      </cc:Work>
    </rdf:RDF>
  </metadata>
  <defs
     id="defs12" />
  <sodipodi:namedview
     pagecolor="#ffffff"
     bordercolor="#666666"
     borderopacity="1"
     objecttolerance="10"
     gridtolerance="10"
     guidetolerance="10"
     inkscape:pageopacity="0"
     inkscape:pageshadow="2"
     inkscape:window-width="640"
     inkscape:window-height="480"
     id="namedview10"
     showgrid="false"
     fit-margin-top="0"
     fit-margin-left="0"
     fit-margin-right="0"
     fit-margin-bottom="0"
     inkscape:zoom="4.9166667"
     inkscape:cx="20"
     inkscape:cy="18"
     inkscape:window-x="384"
     inkscape:window-y="154"
     inkscape:window-maximized="0"
     inkscape:current-layer="svg2" />
  <path
     d="M 7,0 5.17,2 2,2 C 0.9,2 0,2.9 0,4 l 0,12 c 0,1.1 0.9,2 2,2 l 16,0 c 1.1,0 2,-0.9 2,-2 L 20,4 C 20,2.9 19.1,2 18,2 L 14.83,2 13,0 7,0 Z m 3,15 C 7.24,15 5,12.76 5,10 5,7.24 7.24,5 10,5 c 2.76,0 5,2.24 5,5 0,2.76 -2.24,5 -5,5 z"
     id="path4"
     inkscape:connector-curvature="0" />
  <path
     d="m -2,-3 24,0 0,24 -24,0 0,-24 z"
     id="path6"
     inkscape:connector-curvature="0"
     style="fill:none" />
  <path
     d="M 10,14 11.25,11.25 14,10 11.25,8.75 10,6 8.75,8.75 6,10 8.75,11.25 Z"
     id="path8"
     inkscape:connector-curvature="0" />
</svg>
